<svg xmlns="http://www.w3.org/2000/svg" xmlns:xlink="http://www.w3.org/1999/xlink" preserveAspectRatio="xMidYMid" width="1013" height="634" viewBox="0 0 1013 634">
  <defs>
    <style>
      .cls-1 {
        fill: rgba(33, 115, 17, 0.45);
      }

      .cls-1, .cls-2 {
        fill-rule: evenodd;
      }

      .cls-2 {
        fill: rgba(192, 240, 192, 0.45);
      }
    </style>
  </defs>
  <path d="M584.000,31.000 C603.998,33.666 624.002,36.334 644.000,39.000 C656.030,41.541 668.064,44.084 680.094,46.625 C731.957,58.065 781.988,75.376 828.937,99.969 C833.680,102.453 847.028,106.302 848.000,111.000 C947.078,127.621 1162.678,582.920 676.031,607.531 C577.689,612.505 481.687,556.458 404.781,495.219 C347.438,449.556 299.816,393.009 241.687,348.375 C193.989,311.750 138.438,283.699 80.938,266.156 C65.196,261.354 23.802,252.743 24.500,250.125 C32.871,223.153 85.151,198.248 114.906,179.906 C206.147,123.662 304.256,77.636 407.938,49.781 C429.069,44.104 570.258,30.361 584.000,31.000 Z" class="cls-1"/>
  <path d="M961.000,416.000 L869.000,344.000 L842.000,374.000 L818.000,414.000 L780.000,477.000 C780.000,477.000 757.394,493.745 741.435,505.567 C732.728,512.016 726.000,517.000 726.000,517.000 L788.000,434.000 L827.000,362.000 L845.000,333.000 L833.000,324.000 L782.000,369.000 L712.000,439.000 L652.000,481.000 L575.000,502.000 L640.000,472.000 L699.000,434.000 L755.000,376.000 L809.000,320.000 L818.000,313.000 L764.000,293.000 L714.000,347.000 L654.000,403.000 L595.000,430.000 L539.000,441.000 L591.000,418.000 L631.000,400.000 L681.000,351.000 L723.000,299.000 L739.000,284.000 L676.000,259.000 L613.000,313.000 L546.000,347.000 L488.000,358.000 L422.000,376.000 L449.000,351.000 L539.000,335.000 L586.000,311.000 L647.000,254.000 L553.000,223.000 L490.000,279.000 L409.000,320.000 L440.000,288.000 L465.000,275.000 L499.000,252.000 L530.000,221.000 L472.000,212.000 L404.000,263.000 L351.000,299.000 L301.000,317.000 L335.000,290.000 L375.000,268.000 L418.000,230.000 L445.000,209.000 L364.000,196.000 L328.000,200.000 L283.000,230.000 C283.000,230.000 268.858,233.993 252.110,238.722 C227.800,245.586 198.000,254.000 198.000,254.000 L274.000,216.000 L297.000,198.000 L211.000,205.000 L142.000,221.000 L86.000,243.000 L126.000,214.000 L211.000,191.000 L162.000,178.000 L205.000,171.000 L234.000,180.000 L308.000,178.000 L265.000,140.000 L223.000,140.000 L265.000,126.000 L321.000,173.000 L393.000,176.000 L445.000,182.000 L393.000,140.000 L333.000,102.000 L400.000,131.000 L465.000,171.000 L515.000,191.000 L548.000,198.000 L497.000,149.000 L568.000,200.000 L600.000,207.000 L546.000,135.000 L517.000,104.000 L452.000,72.000 L512.000,86.000 L573.000,144.000 L620.000,191.000 L643.000,218.000 L708.000,243.000 L654.000,164.000 L595.000,93.000 L676.000,173.000 L726.000,250.000 L815.000,293.000 C815.000,293.000 794.472,250.997 776.489,214.201 C762.472,185.519 750.000,160.000 750.000,160.000 L685.000,104.000 L755.000,149.000 L804.000,245.000 L833.000,297.000 L912.000,353.000 L876.000,207.000 L910.000,295.000 L923.000,360.000 L959.000,398.000 L961.000,416.000 Z" class="cls-2"/>
</svg>
