<svg xmlns="http://www.w3.org/2000/svg" xmlns:xlink="http://www.w3.org/1999/xlink" preserveAspectRatio="xMidYMid" width="150" height="150" viewBox="0 0 300 300">
  <defs>
    <style>
      .cls-1, .cls-2 {
        fill: #454140;
      }

      .cls-2, .cls-4 {
        fill-rule: evenodd;
      }

      .cls-3 {
        fill: #e9eed7;
      }

      .cls-4 {
        fill: #fff;
      }
    </style>
  </defs>
  <circle cx="116.094" cy="117.313" r="112.5" class="cls-1"/>
  <path d="M109.409,136.438 L126.998,117.732 C131.413,113.036 139.885,113.829 145.920,119.504 L291.481,256.370 C297.516,262.045 298.829,270.452 294.414,275.148 L276.825,293.854 C272.410,298.550 263.938,297.756 257.902,292.082 L112.342,155.216 C106.307,149.541 104.993,141.134 109.409,136.438 Z" class="cls-2"/>
  <circle cx="116.406" cy="117" r="105" class="cls-3"/>
  <path d="M133.723,33.589 C141.683,26.751 162.139,37.510 179.413,57.620 C196.686,77.729 204.237,99.574 196.277,106.411 C188.317,113.249 167.861,102.490 150.587,82.380 C133.314,62.271 125.763,40.426 133.723,33.589 Z" class="cls-4"/>
</svg>
